<svg id="Layer_1" enable-background="new 0 0 32 32" height="512" viewBox="0 0 32 32" width="512" xmlns="http://www.w3.org/2000/svg"><g id="Original" display="none"><g display="inline"><path d="m16 31c-8.3 0-15-6.7-15-15s6.7-15 15-15 15 6.7 15 15-6.7 15-15 15z" fill="#ffb133"/><g><path d="m16 2c7.7 0 14 6.3 14 14s-6.3 14-14 14-14-6.3-14-14 6.3-14 14-14m0-2c-8.8 0-16 7.2-16 16s7.2 16 16 16 16-7.2 16-16-7.2-16-16-16z" fill="#f2e1d3"/></g></g><circle cx="16.3" cy="21.8" display="inline" r="4.2"/><g fill="none" stroke="#000" stroke-miterlimit="10" stroke-width="2"><path d="m13.4 9.1-5.1 5.1" display="inline"/><path d="m8.3 9.1 5.1 5.1" display="inline"/><path d="m23.7 9.1-5.1 5.1" display="inline"/><path d="m18.6 9.1 5.1 5.1" display="inline"/></g></g><g id="outline_out" display="none"><g display="inline"><g><path d="m16 2c7.7 0 14 6.3 14 14s-6.3 14-14 14-14-6.3-14-14 6.3-14 14-14m0-2c-8.8 0-16 7.2-16 16s7.2 16 16 16 16-7.2 16-16-7.2-16-16-16z" fill="#e5e5e5"/></g><g><path d="m16 1c8.3 0 15 6.7 15 15s-6.7 15-15 15-15-6.7-15-15 6.7-15 15-15m0-1c-8.8 0-16 7.2-16 16s7.2 16 16 16 16-7.2 16-16-7.2-16-16-16z" fill="#666"/></g></g><g fill="#666"><circle cx="16.3" cy="21.8" display="inline" r="4.2"/><path d="m7.3 10.7h7.2v2h-7.2z" display="inline" transform="matrix(.707 -.707 .707 .707 -5.074 11.107)"/><path d="m9.9 8.1h2v7.2h-2z" display="inline" transform="matrix(.707 -.707 .707 .707 -5.074 11.107)"/><path d="m17.5 10.7h7.2v2h-7.2z" display="inline" transform="matrix(.707 -.707 .707 .707 -2.069 18.362)"/><path d="m20.1 8.1h2v7.2h-2z" display="inline" transform="matrix(.707 -.707 .707 .707 -2.069 18.362)"/></g></g><g id="Layer_6" display="none"><path d="m-270.3-11.3h445.3v207h-445.3z" display="inline" fill="#fff6c0"/></g><g id="Flat_Expanded" display="none"><g display="inline"><g><path d="m16 31c-8.3 0-15-6.7-15-15s6.7-15 15-15 15 6.7 15 15-6.7 15-15 15z" fill="#ffad29"/></g><g><g><path d="m16 2c7.7 0 14 6.3 14 14s-6.3 14-14 14-14-6.3-14-14 6.3-14 14-14m0-2c-8.8 0-16 7.2-16 16s7.2 16 16 16 16-7.2 16-16-7.2-16-16-16z" fill="#f2e1d3"/></g></g></g><g display="inline"><circle cx="16.3" cy="21.8" r="4.2"/></g><g display="inline"><path d="m7.3 10.7h7.2v2h-7.2z" transform="matrix(.707 -.707 .707 .707 -5.074 11.107)"/></g><g display="inline"><path d="m9.9 8.1h2v7.2h-2z" transform="matrix(.707 -.707 .707 .707 -5.074 11.107)"/></g><g display="inline"><path d="m17.5 10.7h7.2v2h-7.2z" transform="matrix(.707 -.707 .707 .707 -2.069 18.362)"/></g><g display="inline"><path d="m20.1 8.1h2v7.2h-2z" transform="matrix(.707 -.707 .707 .707 -2.069 18.362)"/></g></g><g id="Outline" display="none"><g display="inline"><g><path d="m16 2c7.7 0 14 6.3 14 14s-6.3 14-14 14-14-6.3-14-14 6.3-14 14-14m0-2c-8.8 0-16 7.2-16 16s7.2 16 16 16 16-7.2 16-16-7.2-16-16-16z" fill="#333"/></g></g><g fill="#333"><circle cx="16.3" cy="21.8" display="inline" r="4.2"/><path d="m7.3 10.7h7.2v2h-7.2z" display="inline" transform="matrix(.707 -.707 .707 .707 -5.074 11.107)"/><path d="m9.9 8.1h2v7.2h-2z" display="inline" transform="matrix(.707 -.707 .707 .707 -5.074 11.107)"/><path d="m17.5 10.7h7.2v2h-7.2z" display="inline" transform="matrix(.707 -.707 .707 .707 -2.069 18.362)"/><path d="m20.1 8.1h2v7.2h-2z" display="inline" transform="matrix(.707 -.707 .707 .707 -2.069 18.362)"/></g></g><g id="Glyph"><g><path d="m16 0c-8.8 0-16 7.2-16 16s7.2 16 16 16 16-7.2 16-16-7.2-16-16-16zm-8.4 12.5 1.8-1.8-1.8-1.9 1.4-1.4 1.8 1.8 1.8-1.8 1.4 1.4-1.8 1.8 1.8 1.8-1.4 1.4-1.8-1.8-1.8 1.9zm8.7 13.5c-2.3 0-4.2-1.9-4.2-4.2s1.9-4.2 4.2-4.2 4.2 1.9 4.2 4.2c0 2.4-1.9 4.2-4.2 4.2zm8.1-13.5-1.4 1.4-1.8-1.8-1.8 1.8-1.4-1.4 1.8-1.8-1.8-1.8 1.4-1.4 1.8 1.8 1.8-1.9 1.4 1.4-1.8 1.8z"/></g></g></svg>