<svg clip-rule="evenodd" fill-rule="evenodd" height="512" image-rendering="optimizeQuality" shape-rendering="geometricPrecision" text-rendering="geometricPrecision" viewBox="0 0 1707 1707" width="512" xmlns="http://www.w3.org/2000/svg"><g id="Layer_x0020_1" fill-rule="nonzero"><path d="m996 38c100 0 192 38 262 99 63 56 109 132 126 218 88 16 165 61 222 125 62 70 101 163 101 264 0 110-45 209-117 281-71 71-171 116-280 116-41 0-81-6-118-18-18-6-35-12-52-20-14 57-49 109-99 149-63 50-149 81-244 81-85 0-164-25-225-67-42-29-76-67-98-110-16 14-34 27-54 37-39 20-84 31-131 31-80 0-152-32-204-85-53-52-85-124-85-204 0-59 18-114 48-160 26-38 60-70 100-92-1-5-2-10-2-15-2-16-3-32-3-48 0-109 44-208 116-280s171-116 280-116c25 0 50 2 75 7 12 2 25 5 37 9 31-56 76-103 130-138 62-40 136-64 215-64z"/><path d="m1200 1208c45 0 86 18 116 48s48 71 48 117c0 45-18 86-48 116s-71 48-116 48c-46 0-87-18-117-48s-48-71-48-116c0-46 18-87 48-117s71-48 117-48z"/><path d="m1492 1391c40 0 76 15 102 40s43 60 43 99c0 38-17 73-43 99-26 24-62 39-102 39-39 0-75-15-101-39-27-26-43-61-43-99 0-39 16-74 43-99 26-25 62-40 101-40z"/></g></svg>