<svg id="Layer_1" enable-background="new 0 0 512 512" viewBox="0 0 512 512" xmlns="http://www.w3.org/2000/svg"><path clip-rule="evenodd" d="m268.54 35.42v60.01c0 6.31-5.13 11.43-11.43 11.43h-98.57v-82.88h98.57c6.31 0 11.43 5.13 11.43 11.44zm118.72 64.06c-23.63 0-42.79 19.16-42.79 42.79s19.16 42.79 42.79 42.79 42.79-19.16 42.79-42.79c-.01-23.64-19.16-42.79-42.79-42.79zm-172.46 275.77-55.84-45.99v67.36l-66.21 51.44c-12.17 9.46-14.37 27-4.91 39.17s27 14.37 39.17 4.91l76.5-59.43c6.83-5.07 11.26-13.19 11.29-22.35zm123.09-208.02 11.4 21.65c6.57 12.48 5.28 23.16 5.28 36.49v123.27c0 13.55-10.98 24.53-24.53 24.53s-24.52-10.98-24.53-24.53l-.02-88.26-67.72 48.48 36.33 29.92c5.08 4.18 8.54 9.95 9.75 16.42l20.49 109.64c2.84 15.18-7.16 29.79-22.34 32.63s-29.79-7.16-32.63-22.34l-18.63-99.71-66.5-54.76c-26.74-22.66-22.1-71.61 11.85-93.69l106.57-69.32c17.9-11.64 42.44-14.72 55.23 9.58zm-45.46-114.06c.28 0 .47.22.47.48v23.54c0 .26-.19.48-.47.48h-13.92v-24.5zm-162.43 63.7h127.12c11.8 0 21.4-9.62 21.4-21.44v-7.76h13.92c5.78 0 10.49-4.7 10.49-10.48v-23.54c0-5.78-4.7-10.48-10.49-10.48h-13.92v-7.75c0-11.82-9.59-21.44-21.4-21.44h-127.12c-11.8 0-21.45 9.62-21.45 21.44v60.01c0 11.82 9.65 21.44 21.45 21.44z" fill-rule="evenodd"/></svg>